HIERARCHY
ROOT Hips
{
	OFFSET 0.000000 100.481300 0.000000
	CHANNELS 6 Xposition Yposition Zposition Xrotation Yrotation Zrotation
	JOINT Spine
	{
		OFFSET -0.279200 12.230698 -2.892100
		CHANNELS 3 Xrotation Yrotation Zrotation
		JOINT Spine1
		{
			OFFSET -0.325700 14.269203 -3.374200
			CHANNELS 3 Xrotation Yrotation Zrotation
			JOINT Spine2
			{
				OFFSET -0.372300 16.307602 -0.352600
				CHANNELS 3 Xrotation Yrotation Zrotation
				JOINT Neck
				{
					OFFSET -0.418800 17.814194 8.416900
					CHANNELS 3 Xrotation Yrotation Zrotation
					JOINT Head
					{
						OFFSET 0.000000 7.031097 3.806800
						CHANNELS 3 Xrotation Yrotation Zrotation
						JOINT HeadTop_End
						{
							OFFSET 0.000000 24.646606 12.978600
							CHANNELS 3 Xrotation Yrotation Zrotation
							End Site
							{
								OFFSET 0.000000 27.854965 0.000000
							}
						}
					}
				}
				JOINT LeftShoulder
				{
					OFFSET 16.952999 14.495407 -7.737500
					CHANNELS 3 Xrotation Yrotation Zrotation
					JOINT LeftArm
					{
						OFFSET 9.308998 -2.777710 0.208600
						CHANNELS 3 Xrotation Yrotation Zrotation
						JOINT LeftForeArm
						{
							OFFSET 29.972298 0.000000 0.000000
							CHANNELS 3 Xrotation Yrotation Zrotation
							JOINT LeftHand
							{
								OFFSET 26.026505 0.000000 0.000000
								CHANNELS 3 Xrotation Yrotation Zrotation
								JOINT LeftHandThumb1
								{
									OFFSET 12.240501 -7.147949 9.207150
									CHANNELS 3 Xrotation Yrotation Zrotation
									JOINT LeftHandThumb2
									{
										OFFSET 4.138618 -2.389435 2.389433
										CHANNELS 3 Xrotation Yrotation Zrotation
										JOINT LeftHandThumb3
										{
											OFFSET 2.726913 -1.574387 1.574386
											CHANNELS 3 Xrotation Yrotation Zrotation
											JOINT LeftHandThumb4
											{
												OFFSET 3.941010 -2.275345 2.275342
												CHANNELS 3 Xrotation Yrotation Zrotation
												End Site
												{
													OFFSET -0.005798 5.087799 0.009903
												}
											}
										}
									}
								}
								JOINT LeftHandIndex1
								{
									OFFSET 24.424698 -1.985611 5.953459
									CHANNELS 3 Xrotation Yrotation Zrotation
									JOINT LeftHandIndex2
									{
										OFFSET 6.426697 0.000000 0.000000
										CHANNELS 3 Xrotation Yrotation Zrotation
										JOINT LeftHandIndex3
										{
											OFFSET 5.337898 0.000000 0.000000
											CHANNELS 3 Xrotation Yrotation Zrotation
											JOINT LeftHandIndex4
											{
												OFFSET 4.409401 0.000000 0.000000
												CHANNELS 3 Xrotation Yrotation Zrotation
												End Site
												{
													OFFSET 0.000000 4.409363 0.014373
												}
											}
										}
									}
								}
								JOINT LeftHandMiddle1
								{
									OFFSET 23.810104 0.000000 0.000000
									CHANNELS 3 Xrotation Yrotation Zrotation
									JOINT LeftHandMiddle2
									{
										OFFSET 7.176498 0.000000 0.000000
										CHANNELS 3 Xrotation Yrotation Zrotation
										JOINT LeftHandMiddle3
										{
											OFFSET 6.774902 0.000000 0.000000
											CHANNELS 3 Xrotation Yrotation Zrotation
											JOINT LeftHandMiddle4
											{
												OFFSET 5.403328 0.000000 0.000000
												CHANNELS 3 Xrotation Yrotation Zrotation
												End Site
												{
													OFFSET -0.027702 5.403244 0.017414
												}
											}
										}
									}
								}
								JOINT LeftHandRing1
								{
									OFFSET 22.908401 -0.839279 -6.020567
									CHANNELS 3 Xrotation Yrotation Zrotation
									JOINT LeftHandRing2
									{
										OFFSET 6.337502 0.000000 0.000000
										CHANNELS 3 Xrotation Yrotation Zrotation
										JOINT LeftHandRing3
										{
											OFFSET 5.779297 0.000000 0.000000
											CHANNELS 3 Xrotation Yrotation Zrotation
											JOINT LeftHandRing4
											{
												OFFSET 4.965698 0.000000 0.000000
												CHANNELS 3 Xrotation Yrotation Zrotation
												End Site
												{
													OFFSET 0.000000 4.965668 0.016186
												}
											}
										}
									}
								}
								JOINT LeftHandPinky1
								{
									OFFSET 20.037003 -1.530319 -10.950146
									CHANNELS 3 Xrotation Yrotation Zrotation
									JOINT LeftHandPinky2
									{
										OFFSET 5.254700 0.000000 0.000000
										CHANNELS 3 Xrotation Yrotation Zrotation
										JOINT LeftHandPinky3
										{
											OFFSET 4.810204 0.000000 0.000000
											CHANNELS 3 Xrotation Yrotation Zrotation
											JOINT LeftHandPinky4
											{
												OFFSET 3.647202 0.000000 0.000000
												CHANNELS 3 Xrotation Yrotation Zrotation
												End Site
												{
													OFFSET 0.000000 3.647186 0.011889
												}
											}
										}
									}
								}
							}
						}
					}
				}
				JOINT RightShoulder
				{
					OFFSET -15.141001 14.495407 -7.737500
					CHANNELS 3 Xrotation Yrotation Zrotation
					JOINT RightArm
					{
						OFFSET -9.308998 -2.777710 0.208500
						CHANNELS 3 Xrotation Yrotation Zrotation
						JOINT RightForeArm
						{
							OFFSET -29.972300 0.000000 0.000000
							CHANNELS 3 Xrotation Yrotation Zrotation
							JOINT RightHand
							{
								OFFSET -26.026505 0.000000 0.000000
								CHANNELS 3 Xrotation Yrotation Zrotation
								JOINT RightHandThumb1
								{
									OFFSET -12.240601 -7.148026 9.207092
									CHANNELS 3 Xrotation Yrotation Zrotation
									JOINT RightHandThumb2
									{
										OFFSET -4.138618 -2.389435 2.389433
										CHANNELS 3 Xrotation Yrotation Zrotation
										JOINT RightHandThumb3
										{
											OFFSET -2.726974 -1.574417 1.574421
											CHANNELS 3 Xrotation Yrotation Zrotation
											JOINT RightHandThumb4
											{
												OFFSET -3.941010 -2.275345 2.275343
												CHANNELS 3 Xrotation Yrotation Zrotation
												End Site
												{
													OFFSET 0.005814 5.087799 0.009927
												}
											}
										}
									}
								}
								JOINT RightHandIndex1
								{
									OFFSET -24.424698 -1.985657 5.953444
									CHANNELS 3 Xrotation Yrotation Zrotation
									JOINT RightHandIndex2
									{
										OFFSET -6.426697 0.000000 0.000000
										CHANNELS 3 Xrotation Yrotation Zrotation
										JOINT RightHandIndex3
										{
											OFFSET -5.337898 0.000000 0.000000
											CHANNELS 3 Xrotation Yrotation Zrotation
											JOINT RightHandIndex4
											{
												OFFSET -4.409401 0.000000 0.000000
												CHANNELS 3 Xrotation Yrotation Zrotation
												End Site
												{
													OFFSET 0.000000 4.409363 0.014408
												}
											}
										}
									}
								}
								JOINT RightHandMiddle1
								{
									OFFSET -23.810097 0.000000 0.000000
									CHANNELS 3 Xrotation Yrotation Zrotation
									JOINT RightHandMiddle2
									{
										OFFSET -7.176498 0.000000 0.000000
										CHANNELS 3 Xrotation Yrotation Zrotation
										JOINT RightHandMiddle3
										{
											OFFSET -6.774902 0.000000 0.000000
											CHANNELS 3 Xrotation Yrotation Zrotation
											JOINT RightHandMiddle4
											{
												OFFSET -5.403328 0.000000 0.000000
												CHANNELS 3 Xrotation Yrotation Zrotation
												End Site
												{
													OFFSET 0.027702 5.403244 0.017457
												}
											}
										}
									}
								}
								JOINT RightHandRing1
								{
									OFFSET -22.908302 -0.839325 -6.020576
									CHANNELS 3 Xrotation Yrotation Zrotation
									JOINT RightHandRing2
									{
										OFFSET -6.337502 0.000000 0.000000
										CHANNELS 3 Xrotation Yrotation Zrotation
										JOINT RightHandRing3
										{
											OFFSET -5.779297 0.000000 0.000000
											CHANNELS 3 Xrotation Yrotation Zrotation
											JOINT RightHandRing4
											{
												OFFSET -4.965698 0.000000 0.000000
												CHANNELS 3 Xrotation Yrotation Zrotation
												End Site
												{
													OFFSET 0.000000 4.965668 0.016226
												}
											}
										}
									}
								}
								JOINT RightHandPinky1
								{
									OFFSET -20.037003 -1.530334 -10.950259
									CHANNELS 3 Xrotation Yrotation Zrotation
									JOINT RightHandPinky2
									{
										OFFSET -5.254700 0.000000 0.000000
										CHANNELS 3 Xrotation Yrotation Zrotation
										JOINT RightHandPinky3
										{
											OFFSET -4.810204 0.000000 0.000000
											CHANNELS 3 Xrotation Yrotation Zrotation
											JOINT RightHandPinky4
											{
												OFFSET -3.647202 0.000000 0.000000
												CHANNELS 3 Xrotation Yrotation Zrotation
												End Site
												{
													OFFSET 0.000000 3.647186 0.011917
												}
											}
										}
									}
								}
							}
						}
					}
				}
			}
		}
	}
	JOINT LeftUpLeg
	{
		OFFSET 15.427100 -6.655098 0.678600
		CHANNELS 3 Xrotation Yrotation Zrotation
		JOINT LeftLeg
		{
			OFFSET 4.081073 -39.591068 13.024000
			CHANNELS 3 Xrotation Yrotation Zrotation
			JOINT LeftFoot
			{
				OFFSET -4.081074 -37.707932 -15.979700
				CHANNELS 3 Xrotation Yrotation Zrotation
				JOINT LeftToeBase
				{
					OFFSET 5.346399 -15.068900 20.645000
					CHANNELS 3 Xrotation Yrotation Zrotation
					JOINT LeftToe_End
					{
						OFFSET 2.754700 0.931300 11.300900
						CHANNELS 3 Xrotation Yrotation Zrotation
						End Site
						{
							OFFSET 0.000000 11.669021 0.000000
						}
					}
				}
			}
		}
	}
	JOINT RightUpLeg
	{
		OFFSET -15.569500 -6.655098 0.678600
		CHANNELS 3 Xrotation Yrotation Zrotation
		JOINT RightLeg
		{
			OFFSET -4.081825 -39.591045 13.023800
			CHANNELS 3 Xrotation Yrotation Zrotation
			JOINT RightFoot
			{
				OFFSET 4.081824 -37.707954 -15.979600
				CHANNELS 3 Xrotation Yrotation Zrotation
				JOINT RightToeBase
				{
					OFFSET -5.346400 -15.068900 20.645000
					CHANNELS 3 Xrotation Yrotation Zrotation
					JOINT RightToe_End
					{
						OFFSET -2.754700 0.931300 11.300900
						CHANNELS 3 Xrotation Yrotation Zrotation
						End Site
						{
							OFFSET 0.000000 11.669021 0.000000
						}
					}
				}
			}
		}
	}
}
MOTION
Frames: 6
Frame Time: 0.033333
0.564792 49.295425 16.301851 0.145808 0.084111 0.843234 10.430262 0.116502 -1.466956 -0.199132 0.214259 -0.354529 -0.199396 0.247945 -0.300875 -1.001768 -1.284345 0.469464 -8.883499 -4.327063 -5.321559 -0.000000 -0.000000 -0.000000 0.823525 -15.262005 -7.868723 4.746590 -21.216412 -54.862115 0.000001 -62.197888 -0.000000 31.063058 4.315324 41.770445 6.610618 1.798232 20.801493 2.716396 20.172591 -24.389161 -5.537239 29.849525 5.070892 -0.000000 0.000000 -0.000000 -0.235302 2.798394 -26.913105 0.396824 2.121291 -21.189294 0.083127 0.984445 -9.653135 0.000000 0.000001 0.000002 1.299148 7.334278 -16.511231 0.329950 1.940077 -19.302043 0.233128 1.637756 -16.201268 0.000001 -0.000001 0.000001 1.797303 9.807703 -14.184774 0.205897 1.540986 -15.219617 0.265324 1.744720 -17.292053 -0.000001 -0.000001 0.000001 2.041319 10.867587 -13.918930 0.168519 1.396411 -13.761328 0.107161 1.116563 -10.963893 -0.000002 -0.000002 0.000003 3.171016 -4.378760 8.782863 -3.950413 37.253358 63.733588 0.000025 55.138259 -0.000040 43.537419 4.741007 -36.278140 -9.383508 -1.613358 -17.604717 3.553409 -24.340245 34.655700 -6.608352 -37.497359 -11.176011 -0.000002 -0.000001 0.000004 2.957828 1.012855 13.530003 0.472465 -2.045708 26.006732 0.059748 -0.744385 9.177805 -0.000001 -0.000001 0.000003 0.105548 -3.665157 2.525309 0.585012 -2.261716 29.000775 0.020462 -0.436584 5.367130 -0.000001 0.000002 -0.000001 0.456452 -7.644294 4.306145 0.107457 -0.995687 12.318577 0.072403 -0.818835 10.104765 -0.000001 0.000000 -0.000002 -11.162322 -10.227904 7.169814 0.029120 -0.520516 6.403065 0.028656 -0.516330 6.351256 -0.000001 -0.000000 -0.000001 -86.308019 -11.438548 18.508732 79.642888 -0.702840 -3.163820 9.217459 -6.273827 -9.753852 -0.103116 0.000003 0.000006 -0.000000 0.000000 0.000000 -88.052634 12.729237 -14.142875 80.263984 0.652098 1.260201 10.522540 -0.513788 10.733915 -0.191621 0.000000 -0.000001 -0.000000 0.000000 0.000000 
0.578928 49.294724 16.286156 0.131422 0.053405 0.793788 10.429043 0.115670 -1.444550 -0.190890 0.215197 -0.305464 -0.191055 0.248709 -0.251407 -1.031949 -1.276165 0.484977 -8.935317 -4.249457 -5.350162 -0.000000 0.000000 -0.000000 0.718395 -15.180184 -7.954208 4.822540 -21.311722 -54.838653 0.000048 -62.123439 0.000046 31.006136 4.296323 41.820449 5.729494 2.272651 20.554638 2.880119 20.443678 -25.375133 -5.765285 30.302237 5.252544 -0.000000 0.000004 0.000001 -0.265497 2.667735 -26.450387 0.442999 2.236614 -22.403406 0.082186 0.978866 -9.597846 0.000001 0.000000 -0.000002 1.227689 7.153284 -16.231012 0.371544 2.054916 -20.495506 0.219678 1.590775 -15.724070 -0.000000 -0.000001 0.000004 1.763679 9.720408 -14.087672 0.207884 1.548298 -15.293340 0.256757 1.716948 -17.008242 -0.000001 -0.000000 -0.000001 1.248054 11.064130 -13.894248 0.173103 1.415028 -13.948375 0.103474 1.097323 -10.772766 -0.000001 0.000000 -0.000002 3.167429 -4.428846 8.673920 -4.002122 37.394070 63.763743 0.000001 55.070972 -0.000007 43.481380 4.740147 -36.272785 -9.243700 -1.727128 -17.582179 3.543466 -24.253780 35.367464 -6.587576 -37.622844 -11.203208 -0.000002 0.000000 -0.000001 2.887207 0.942798 13.582884 0.479630 -2.060292 26.206574 0.059140 -0.740673 9.131469 -0.000001 -0.000001 0.000003 0.108836 -3.712292 2.578579 0.591310 -2.273040 29.160311 0.020026 -0.431888 5.309460 -0.000000 0.000001 0.000000 0.463769 -7.666976 4.368303 0.107585 -0.996243 12.325517 0.072380 -0.818790 10.104113 -0.000000 -0.000001 -0.000002 -11.153383 -10.335413 7.226323 0.023162 -0.464358 5.709803 0.019987 -0.431516 5.304832 0.000003 -0.000000 -0.000001 -86.314917 -11.476991 18.539461 79.657231 -0.721373 -3.160939 9.224618 -6.274199 -9.739975 -0.122068 -0.000003 -0.000001 -0.000000 0.000000 -0.000000 -88.032136 12.680510 -14.093230 80.231015 0.650210 1.259056 10.539656 -0.515107 10.740888 -0.203588 -0.000003 -0.000001 0.000000 -0.000000 -0.000000 
0.601670 49.290657 16.262732 0.157890 0.034246 0.771869 10.435938 0.115161 -1.415074 -0.169486 0.218727 -0.240738 -0.169531 0.251210 -0.186416 -1.100673 -1.254457 0.485485 -9.152157 -4.134369 -5.373542 0.000000 0.000000 0.000000 0.524222 -15.038323 -8.152206 5.005535 -21.408871 -54.735681 0.000030 -62.162433 0.000038 30.990040 4.262398 41.845827 4.862480 2.728349 20.256577 3.026125 20.712226 -26.340165 -5.998726 30.697787 5.414203 0.000000 0.000002 0.000002 -0.272314 2.538276 -25.966554 0.489534 2.346252 -23.567336 0.081270 0.973498 -9.544681 0.000000 -0.000001 0.000000 1.157437 6.973165 -15.934500 0.414677 2.166749 -21.666508 0.206460 1.543095 -15.240689 0.000000 -0.000001 0.000002 1.729275 9.638007 -13.968764 0.209430 1.553918 -15.350184 0.248045 1.688235 -16.715235 -0.000000 -0.000000 -0.000002 0.444474 11.238680 -13.857258 0.177020 1.430666 -14.105773 0.099501 1.076296 -10.564032 -0.000003 0.000000 -0.000002 3.154178 -4.494572 8.506653 -3.995913 37.557684 63.753191 0.000027 55.146872 -0.000044 43.431892 4.637377 -36.300403 -9.135436 -1.965292 -17.572627 3.542203 -24.177654 36.108239 -6.538411 -37.892295 -11.254011 -0.000002 -0.000003 -0.000000 2.770813 0.816037 13.690293 0.494546 -2.090335 26.618693 0.057919 -0.732974 9.035857 -0.000001 0.000000 0.000003 0.114594 -3.785929 2.681004 0.604358 -2.296241 29.487511 0.019137 -0.422234 5.190325 0.000001 0.000000 0.000000 0.476565 -7.691916 4.489778 0.107956 -0.997993 12.347266 0.072400 -0.818836 10.104664 0.000002 0.000000 -0.000002 -11.179572 -10.438355 7.356052 0.017984 -0.409200 5.029694 0.012103 -0.335941 4.127391 0.000000 -0.000001 0.000001 -86.366185 -11.496188 18.540116 79.656610 -0.713110 -3.163279 9.252196 -6.272833 -9.722801 -0.140077 0.000003 0.000000 0.000000 -0.000000 -0.000000 -88.067086 12.673990 -14.073421 80.191400 0.666645 1.260422 10.583962 -0.517710 10.747850 -0.214950 0.000001 -0.000003 0.000000 -0.000001 -0.000000 
0.625914 49.292145 16.229822 0.227649 0.025155 0.785389 10.461002 0.115620 -1.375798 -0.116344 0.219572 -0.164333 -0.116272 0.250858 -0.109853 -1.220402 -1.232129 0.492036 -9.605351 -4.005473 -5.417572 0.000000 0.000000 0.000000 0.269793 -14.818032 -8.444029 5.207498 -21.544510 -54.572214 -0.000005 -62.260542 -0.000021 31.009609 4.186123 41.869910 4.038511 3.161248 19.830247 3.160474 20.982292 -27.250483 -6.150061 31.055289 5.523248 -0.000000 0.000003 0.000000 -0.277518 2.433847 -25.494091 0.537804 2.453852 -24.720058 0.079997 0.965866 -9.469092 0.000001 0.000001 -0.000002 1.094636 6.807422 -15.663914 0.457644 2.271801 -22.775802 0.194315 1.497803 -14.782817 0.000002 0.000001 -0.000001 1.699647 9.556272 -13.889566 0.211238 1.560503 -15.416954 0.239831 1.660652 -16.434075 0.000001 -0.000000 -0.000002 -0.320797 11.355242 -13.825975 0.182073 1.450624 -14.306733 0.096685 1.061045 -10.412483 -0.000003 -0.000001 0.000002 3.134327 -4.551011 8.310097 -3.892132 37.754714 63.616498 -0.000006 55.419694 0.000002 43.351829 4.388428 -36.372598 -9.067067 -2.319061 -17.579309 3.546818 -24.113827 36.833383 -6.462286 -38.294921 -11.324794 0.000001 -0.000002 -0.000001 2.615332 0.637243 13.847073 0.516858 -2.134236 27.223949 0.056129 -0.721645 8.894756 -0.000002 0.000001 0.000003 0.122835 -3.883066 2.827546 0.623735 -2.330131 29.967387 0.017860 -0.407921 5.014040 0.000000 0.000001 0.000002 0.494314 -7.717764 4.665388 0.108572 -1.000778 12.382634 0.072463 -0.819206 10.109613 -0.000001 -0.000000 0.000000 -11.242646 -10.534299 7.552914 0.013513 -0.354782 4.359387 0.005682 -0.230339 2.828732 -0.000002 0.000001 -0.000002 -86.444739 -11.487986 18.508508 79.628811 -0.674554 -3.169308 9.292869 -6.269661 -9.712861 -0.156925 -0.000002 0.000000 -0.000000 0.000000 -0.000000 -88.154479 12.696334 -14.071211 80.139818 0.682216 1.262012 10.650886 -0.516549 10.752651 -0.225581 0.000003 0.000000 0.000000 0.000001 0.000000 
0.645366 49.296822 16.197323 0.352404 0.021683 0.840138 10.507370 0.116873 -1.328575 -0.023593 0.208355 -0.085872 -0.023452 0.238960 -0.031419 -1.395853 -1.223856 0.533420 -10.289519 -3.893014 -5.497808 -0.000000 -0.000000 0.000000 0.036077 -14.578139 -8.716675 5.321602 -21.692220 -54.428138 -0.000006 -62.388587 0.000001 31.048117 4.070678 41.937266 3.274361 3.567603 19.200285 3.299489 21.256701 -28.091660 -6.150541 31.417511 5.565512 -0.000000 -0.000002 0.000001 -0.296414 2.381223 -25.107323 0.591688 2.567548 -25.949844 0.078839 0.958894 -9.400267 -0.000002 -0.000003 -0.000001 1.047810 6.671175 -15.510852 0.501334 2.373093 -23.853932 0.185143 1.462693 -14.428370 -0.000000 0.000004 -0.000004 1.683147 9.472235 -13.938369 0.214791 1.573348 -15.547063 0.233376 1.638586 -16.209509 0.000001 0.000000 -0.000002 -1.004056 11.386835 -13.858449 0.190853 1.484600 -14.649422 0.096201 1.058506 -10.387329 0.000001 0.000000 -0.000002 3.117392 -4.546255 8.178048 -3.619206 37.940741 63.221426 0.000012 55.958114 -0.000027 43.225744 3.980833 -36.469553 -9.042452 -2.748503 -17.599468 3.555066 -24.065082 37.480209 -6.368782 -38.785226 -11.408444 -0.000000 -0.000003 0.000002 2.439206 0.425713 14.034684 0.544308 -2.186704 27.951955 0.054009 -0.707978 8.724774 0.000000 -0.000000 0.000000 0.132978 -3.993382 3.001961 0.647381 -2.370658 30.544172 0.016384 -0.390678 4.801419 0.000000 -0.000002 -0.000000 0.515086 -7.742125 4.875406 0.109358 -1.004395 12.428047 0.072620 -0.820054 10.119826 0.000001 0.000001 -0.000005 -11.334801 -10.620161 7.792960 0.009734 -0.301330 3.701614 0.001510 -0.118356 1.452997 0.000002 0.000001 -0.000003 -86.555203 -11.457315 18.447829 79.580494 -0.615513 -3.177776 9.332977 -6.265617 -9.725747 -0.172574 -0.000009 0.000003 -0.000000 0.000000 -0.000000 -88.313089 12.754320 -14.086417 80.091905 0.700581 1.266951 10.732028 -0.516349 10.740944 -0.235465 -0.000004 -0.000001 0.000000 -0.000000 -0.000000 
0.651848 49.299522 16.180485 0.547424 0.016539 0.933805 10.568096 0.114893 -1.278723 0.097442 0.179231 -0.012802 0.097634 0.209357 0.041362 -1.611535 -1.234030 0.623440 -11.102450 -3.808716 -5.596706 -0.000000 0.000000 0.000000 -0.064101 -14.392255 -8.821166 5.312515 -21.795142 -54.375071 0.000021 -62.623348 0.000022 31.088381 3.961567 42.060906 2.655731 3.864294 18.479157 3.424115 21.489619 -28.768477 -6.043350 31.667335 5.546618 -0.000000 -0.000001 0.000002 -0.294473 2.368462 -24.886322 0.643603 2.671501 -27.085878 0.079522 0.963011 -9.440908 0.000001 0.000001 0.000000 1.022340 6.576431 -15.538561 0.543125 2.465356 -24.843941 0.181434 1.448152 -14.281969 -0.000002 0.000002 -0.000002 1.683705 9.407783 -14.104133 0.220031 1.592040 -15.736749 0.229971 1.626869 -16.090659 -0.000003 -0.000000 -0.000000 -1.548309 11.351738 -13.994253 0.201834 1.526010 -15.067863 0.097206 1.063897 -10.440917 -0.000001 0.000000 -0.000003 3.109805 -4.429859 8.188332 -3.110989 38.035090 62.488547 -0.000023 56.821788 0.000024 43.096311 3.440230 -36.568894 -9.059416 -3.195237 -17.619600 3.568461 -24.035999 37.991626 -6.271852 -39.298600 -11.495877 0.000002 -0.000000 0.000001 2.266234 0.209959 14.226913 0.573360 -2.240573 28.704000 0.051874 -0.693897 8.550434 -0.000001 0.000001 0.000002 0.143835 -4.101941 3.182196 0.672207 -2.412219 31.139177 0.014951 -0.373036 4.584310 -0.000001 -0.000001 0.000000 0.536113 -7.762885 5.090663 0.110255 -1.008420 12.478406 0.072791 -0.821037 10.132250 0.000001 -0.000000 0.000003 -11.440359 -10.692309 8.040837 0.006653 -0.249194 3.060316 0.000012 -0.005420 0.066490 0.000002 0.000000 -0.000001 -86.702899 -11.431456 18.384564 79.530443 -0.542505 -3.191423 9.353518 -6.258865 -9.779714 -0.187124 -0.000004 -0.000001 -0.000000 0.000000 -0.000000 -88.565670 12.838257 -14.098919 80.066449 0.725686 1.270555 10.808285 -0.511301 10.717096 -0.244644 -0.000008 -0.000001 0.000000 0.000001 -0.000000 
